<?xml version="1.0" standalone="no"?><!DOCTYPE svg PUBLIC "-//W3C//DTD SVG 1.1//EN" "http://www.w3.org/Graphics/SVG/1.1/DTD/svg11.dtd"><svg t="1742441685827" class="icon" viewBox="0 0 1024 1024" version="1.1" xmlns="http://www.w3.org/2000/svg" p-id="59130" xmlns:xlink="http://www.w3.org/1999/xlink" width="32" height="32"><path d="M954.048 483.072a256 256 0 1 0-406.016-306.88c118.016 27.072 209.792 122.88 227.52 243.072a300.992 300.992 0 0 1 178.496 63.808zM519.104 523.2a33.856 33.856 0 0 0 3.2 45.12L599.744 640H352a32 32 0 0 0 0 64h247.68l-77.376 71.68a33.856 33.856 0 0 0-3.2 45.12c10.688 13.44 29.312 14.976 41.728 3.52l129.408-119.936a44.992 44.992 0 0 0 0-64.768L560.832 519.68a28.096 28.096 0 0 0-41.728 3.52z" fill="#60666E" p-id="59131"></path><path d="M480 211.2c141.44 0 256 112.256 256 250.688h32c141.44 0 256 112.192 256 250.688 0 138.432-114.56 250.624-256 250.624H256c-141.44 0-256-112.192-256-250.688 0-127.808 97.728-233.28 224-248.704v-1.92c0-138.432 114.56-250.688 256-250.688z m14.08 292.096a65.856 65.856 0 0 0 6.528 88.448l17.472 16.256H352a64 64 0 0 0 0 128h166.08l-17.472 16.256c-24.96 23.04-27.392 62.208-6.592 88.448a60.096 60.096 0 0 0 88.576 7.04l129.408-119.872c32-29.696 32-82.048 0-111.744L582.592 496.256a60.096 60.096 0 0 0-88.512 7.04z" fill="#60666E" fill-opacity=".3" p-id="59132"></path></svg>